# xmcd
#
# Track frame offsets: 
#        150
#        13487
#        32600
#        47962
#        64250
#        85150
#        103125
#        117675
#        141475
#        163712
#        177612
#        192112
#        213250
#        236625
#        253300
#        269737
#        289237
#
# Disc length: 4019 seconds
#
# Revision: 6
# Processed by: cddbd v1.5.2PL0 Copyright (c) Steve Scherf et al.
# Submitted via: ExactAudioCopy v1.0b1
#
DISCID=180fb111
DTITLE=区瑞强 - 民歌味道 III
DYEAR=2000
DGENRE=Folk
TTITLE0=那天再重聚
TTITLE1=暂别
TTITLE2=最爱是谁
TTITLE3=谁可改变
TTITLE4=零时十分
TTITLE5=旧梦不需记&顺流逆流
TTITLE6=迟来的春天
TTITLE7=月半弯
TTITLE8=有了你
TTITLE9=浪子心声
TTITLE10=那一天
TTITLE11=星
TTITLE12=从不知
TTITLE13=但愿人长久
TTITLE14=终有一天感动你
TTITLE15=真的爱你
TTITLE16=父母恩
EXTD=
EXTT0=
EXTT1=
EXTT2=
EXTT3=
EXTT4=
EXTT5=
EXTT6=
EXTT7=
EXTT8=
EXTT9=
EXTT10=
EXTT11=
EXTT12=
EXTT13=
EXTT14=
EXTT15=
EXTT16=
PLAYORDER=
